<svg aria-hidden="true" style="position: absolute; width: 0; height: 0; overflow: hidden;" version="1.1" xmlns="http://www.w3.org/2000/svg" xmlns:xlink="http://www.w3.org/1999/xlink">
  <defs>
    <symbol id="icon-atom_logo" viewBox="0 0 29 32">
      <path d="M14.618 0.073c-1.229 0.043-2.329 0.563-3.126 1.381l-0.001 0.001c-0.976 0.97-1.769 2.124-2.322 3.406l-0.027 0.071c-0.138 0.305-0.269 0.618-0.393 0.945-0.626-0.105-1.37-0.181-2.126-0.21l-0.034-0.001c-1.12-0.022-2.145 0.087-3.040 0.364-1.193 0.364-2.182 1.025-2.756 2.022-0.567 0.989-0.655 2.182-0.364 3.396 0.391 1.441 1.023 2.699 1.859 3.794l-0.019-0.026c0.196 0.269 0.4 0.538 0.618 0.807-0.218 0.269-0.422 0.538-0.618 0.815-0.819 1.068-1.454 2.326-1.829 3.691l-0.018 0.076c-0.105 0.367-0.166 0.789-0.166 1.225 0 0.795 0.202 1.543 0.556 2.195l-0.012-0.024c0.625 0.99 1.592 1.715 2.732 2.015l0.032 0.007c1.193 0.364 2.611 0.444 4.182 0.291 0.335-0.036 0.669-0.080 1.018-0.138 0.116 0.32 0.247 0.633 0.385 0.945 0.655 1.44 1.433 2.633 2.342 3.484 0.799 0.817 1.898 1.337 3.119 1.382l0.008 0c1.149 0 2.218-0.531 3.127-1.382 0.975-0.975 1.765-2.134 2.315-3.42l0.027-0.071c0.145-0.305 0.269-0.618 0.393-0.938 0.342 0.058 0.684 0.102 1.011 0.131 1.571 0.16 2.996 0.073 4.189-0.284 1.193-0.364 2.182-1.025 2.756-2.022 0.575-0.989 0.655-2.182 0.364-3.396-0.391-1.441-1.023-2.699-1.859-3.794l0.019 0.026c-0.196-0.276-0.407-0.545-0.618-0.815 0.218-0.262 0.422-0.531 0.618-0.8 0.821-1.072 1.456-2.335 1.83-3.706l0.018-0.076c0.291-1.215 0.204-2.4-0.371-3.389-0.623-0.988-1.588-1.713-2.724-2.015l-0.032-0.007c-0.797-0.236-1.713-0.371-2.66-0.371-0.133 0-0.266 0.003-0.398 0.008l0.019-0.001c-0.777 0.018-1.523 0.091-2.25 0.216l0.090-0.013-0.393-0.938c-0.578-1.352-1.368-2.506-2.342-3.476l-0-0c-0.799-0.817-1.898-1.337-3.119-1.382l-0.008-0zM14.618 1.345c0.756 0 1.505 0.335 2.255 1.033 0.735 0.698 1.447 1.745 2.051 3.076l0.276 0.655c-1.455 0.327-3.011 0.829-4.582 1.491-1.585-0.662-3.127-1.164-4.596-1.484l0.284-0.655c0.596-1.338 1.309-2.385 2.051-3.084 0.57-0.604 1.363-0.993 2.247-1.032l0.007-0zM6.182 6.945c0.057-0.001 0.124-0.002 0.191-0.002 0.437 0 0.869 0.024 1.294 0.072l-0.052-0.005 0.713 0.087c-0.435 1.344-0.79 2.939-0.997 4.579l-0.014 0.133c-1.323 1.001-2.492 2.060-3.563 3.212l-0.016 0.017-0.436-0.567c-0.721-0.941-1.283-2.047-1.62-3.248l-0.016-0.068c-0.089-0.284-0.14-0.611-0.14-0.95 0-0.556 0.138-1.081 0.381-1.54l-0.009 0.018c0.461-0.712 1.172-1.229 2.007-1.428l0.022-0.005c0.67-0.199 1.439-0.313 2.236-0.313 0.012 0 0.024 0 0.035 0h-0.002zM23.040 6.945c0.858 0 1.622 0.109 2.262 0.305 0.854 0.205 1.562 0.722 2.014 1.42l0.008 0.013c0.385 0.662 0.465 1.476 0.233 2.473-0.354 1.269-0.915 2.375-1.654 3.34l0.017-0.023-0.436 0.567c-1.086-1.166-2.255-2.223-3.51-3.173l-0.068-0.049c-0.218-1.709-0.56-3.295-1.004-4.727 0.642-0.092 1.384-0.145 2.138-0.145h0zM19.636 7.324c0.335 1.055 0.618 2.218 0.829 3.462-1.204-0.828-2.592-1.643-4.038-2.36l-0.202-0.091c0.933-0.367 2.074-0.715 3.246-0.98l0.165-0.031zM9.593 7.324c1.335 0.299 2.473 0.649 3.572 1.076l-0.169-0.058c-1.645 0.806-3.032 1.619-4.352 2.521l0.119-0.077c0.223-1.341 0.511-2.507 0.878-3.637l-0.049 0.175zM14.611 8.996c2.326 1.037 4.326 2.211 6.177 3.576l-0.089-0.063c0.121 1.055 0.19 2.278 0.19 3.516s-0.069 2.461-0.204 3.664l0.013-0.148c-1.761 1.301-3.761 2.475-5.881 3.43l-0.206 0.083c-2.326-1.037-4.326-2.211-6.177-3.576l0.089 0.063c-0.121-1.055-0.19-2.278-0.19-3.516s0.069-2.461 0.204-3.664l-0.013 0.148c1.761-1.302 3.761-2.476 5.881-3.43l0.206-0.083zM14.698 10.909l-3.651 2.255 3.651 2.255 3.651-2.255-3.658-2.255zM7.149 13.578c-0.055 0.732-0.086 1.586-0.086 2.447s0.031 1.715 0.093 2.56l-0.007-0.113c-0.938-0.773-1.781-1.575-2.565-2.432l-0.017-0.019c0.8-0.873 1.643-1.672 2.539-2.41l0.043-0.034zM22.080 13.578c0.935 0.771 1.776 1.571 2.558 2.425l0.017 0.019c-0.799 0.876-1.64 1.678-2.533 2.418l-0.041 0.033c0.055-0.732 0.086-1.586 0.086-2.447s-0.031-1.715-0.093-2.56l0.007 0.113zM10.225 14.153v4.444l3.833 2.364v-4.444l-3.833-2.364zM19.164 14.153l-3.833 2.364v4.444l3.833-2.364v-4.436zM3.738 17.004c1.086 1.169 2.256 2.228 3.511 3.18l0.067 0.049c0.218 1.702 0.56 3.295 1.004 4.72l-0.705 0.087c-1.455 0.145-2.72 0.058-3.695-0.24-0.854-0.206-1.562-0.722-2.014-1.42l-0.008-0.013c-0.235-0.442-0.373-0.966-0.373-1.522 0-0.339 0.051-0.666 0.146-0.974l-0.006 0.023c0.353-1.269 0.915-2.375 1.653-3.34l-0.017 0.023 0.436-0.575zM25.484 17.004l0.436 0.575c0.721 0.941 1.283 2.047 1.62 3.248l0.016 0.068c0.233 0.989 0.145 1.811-0.233 2.473-0.459 0.711-1.168 1.227-1.999 1.428l-0.023 0.005c-0.975 0.291-2.24 0.385-3.695 0.24-0.233-0.022-0.473-0.051-0.705-0.087 0.434-1.347 0.786-2.944 0.99-4.588l0.013-0.132c1.326-1.001 2.498-2.060 3.57-3.213l0.015-0.017zM20.465 21.265c-0.218 1.244-0.495 2.4-0.829 3.462-1.338-0.299-2.478-0.649-3.58-1.076l0.169 0.058c1.649-0.806 3.037-1.619 4.36-2.521l-0.12 0.077zM8.756 21.265c1.204 0.828 2.592 1.643 4.038 2.36l0.202 0.091c-1.178 0.436-2.327 0.778-3.404 1.011-0.318-0.955-0.606-2.121-0.809-3.316l-0.020-0.146zM14.647 21.324l0.051 0.029 0.044-0.029h-0.095zM14.611 24.451c1.585 0.655 3.127 1.164 4.589 1.484l-0.276 0.655c-0.509 1.198-1.204 2.221-2.059 3.084l0.001-0.001c-0.57 0.604-1.363 0.993-2.247 1.032l-0.007 0c-0.888-0.042-1.679-0.43-2.246-1.031l-0.002-0.002c-0.742-0.698-1.455-1.745-2.051-3.076-0.102-0.218-0.196-0.436-0.284-0.662 1.767-0.408 3.299-0.92 4.762-1.558l-0.173 0.067z"></path>
    </symbol>
    <symbol id="icon-cosmetics_logo" viewBox="0 0 39 32">
      <path d="M11.977 10.578h-12.133c-0.003-0-0.006-0-0.009-0-0.362 0-0.657 0.289-0.667 0.648l-0 0.001v3.886c0 0.366 0.302 0.649 0.677 0.649h0.667v14.903c0 0.357 0.302 0.64 0.677 0.64h9.454c0.366 0 0.677-0.283 0.677-0.64v-14.903h0.677c0.366 0 0.677-0.293 0.677-0.64v-3.895c0-0.357-0.302-0.64-0.677-0.64zM4.562 22.885v-1.289h4.059v-1.298h-4.069v-1.298h5.403v8.43h-5.385v-3.237h1.344v-1.298h-1.362zM9.966 17.71h-6.080c-0.006-0-0.012-0-0.019-0-0.357 0-0.648 0.285-0.658 0.639l-0 0.001v9.719c0 0.366 0.302 0.649 0.677 0.649h6.071v1.298h-8.101v-14.254h8.101v1.947zM11.319 14.464h-10.816v-2.578h10.807v2.587zM20.937 10.697v-4.718c0-0.366-0.311-0.667-0.686-0.667h-0.667v-3.346h1.344v-1.335h-7.424v1.335h4.727v3.337h-0.677c-0.366 0-0.677 0.293-0.677 0.667v4.736c-1.542 0.313-2.688 1.653-2.697 3.263v16.678c0 0.366 0.302 0.658 0.677 0.658h8.101c0.366 0 0.677-0.293 0.677-0.658v-16.677c-0.014-1.612-1.162-2.952-2.685-3.26l-0.022-0.004zM18.231 6.638h1.353v3.995h-1.353v-3.995zM17.554 11.968h2.697c0.005-0 0.012-0 0.018-0 1.108 0 2.006 0.895 2.011 2.002v0.659h-6.757v-0.667c0-1.097 0.914-2.002 2.030-2.002zM22.281 27.31h-6.757v-1.344h2.706v-1.335h-2.706v-8.667h6.757v11.337zM15.525 29.979v-1.335h6.757v1.335h-6.757zM38.19 9.755h-11.392c-0 0-0 0-0 0-0.353 0-0.64 0.287-0.64 0.64 0 0.003 0 0.006 0 0.010v-0.001 20.251c0 0.366 0.293 0.649 0.64 0.649h11.392c0.353 0 0.64-0.287 0.64-0.64v0-20.27c0-0.003 0-0.006 0-0.009 0-0.353-0.287-0.64-0.64-0.64-0 0-0 0-0 0v0zM37.55 30.007h-10.121v-18.953h10.13v18.953z"></path>
      <path d="M9.28 23.022h-1.682v0.823h1.682v-0.823zM21.102 24.677h-1.691v1.655h1.691v-1.646zM18.99 23.022c0.008 0 0.018 0 0.027 0 1.609 0 2.915-1.3 2.926-2.907v-0.001c-0.015-1.604-1.319-2.898-2.926-2.898-0.010 0-0.019 0-0.029 0h0.001c-0.008-0-0.018-0-0.028-0-1.606 0-2.91 1.294-2.926 2.897v0.001c0.010 1.608 1.316 2.908 2.926 2.908 0.010 0 0.019-0 0.029-0h-0.001zM18.99 18.661c0.814 0 1.472 0.658 1.472 1.463-0.010 0.8-0.661 1.445-1.463 1.445-0.003 0-0.006 0-0.010-0h0c-0.005 0-0.012 0-0.018 0-0.805 0-1.458-0.65-1.463-1.453v-0c0-0.795 0.667-1.454 1.481-1.454zM30.903 16.384h3.173c1.225 0 2.213-0.933 2.213-2.075s-0.987-2.066-2.213-2.066h-3.173c-1.225 0-2.222 0.923-2.222 2.066s1.006 2.075 2.222 2.075zM35.017 14.309c-0.010 0.497-0.415 0.896-0.914 0.896-0.010 0-0.019-0-0.029-0l0.001 0h-0.951v-1.783h0.951c0.521 0 0.951 0.402 0.951 0.887zM30.903 13.422h0.96v1.783h-0.96c-0.521 0-0.951-0.402-0.951-0.896 0-0.485 0.43-0.887 0.951-0.887zM30.903 23.022h3.173c1.225 0 2.213-1.115 2.213-2.487s-0.987-2.496-2.213-2.496h-3.173c-1.225 0-2.222 1.115-2.222 2.496 0 1.371 1.006 2.487 2.222 2.487zM35.017 20.535c0 0.585-0.421 1.061-0.942 1.061h-0.951v-2.121h0.951c0.521 0 0.951 0.475 0.951 1.070zM30.903 19.465h0.96v2.13h-0.96c-0.521 0-0.951-0.475-0.951-1.061 0-0.594 0.43-1.070 0.951-1.070zM30.903 28.818h3.173c1.225 0 2.213-1.115 2.213-2.487s-0.987-2.487-2.213-2.487h-3.173c-1.225 0-2.222 1.115-2.222 2.487s1.006 2.487 2.222 2.487zM35.017 26.331c0 0.594-0.421 1.070-0.942 1.070h-0.951v-2.13h0.951c0.521 0 0.951 0.475 0.951 1.061zM30.903 25.271h0.96v2.13h-0.96c-0.521 0-0.951-0.475-0.951-1.070 0-0.585 0.43-1.061 0.951-1.061z"></path>
    </symbol>
    <symbol id="icon-crown_logo" viewBox="0 0 39 32">
      <path d="M37.804 7.547c-0.386-0.367-0.91-0.593-1.487-0.593-0.352 0-0.685 0.084-0.979 0.234l0.012-0.006-8.409 4.107c-0.043 0.026-0.094 0.041-0.149 0.041-0.081 0-0.154-0.033-0.207-0.085l0 0c-0.036-0.029-0.066-0.065-0.088-0.105l-0.001-0.002-4.898-9.716c-0.197-0.403-0.488-0.733-0.845-0.972l-0.009-0.006c-0.333-0.221-0.742-0.352-1.182-0.352s-0.849 0.131-1.19 0.357l0.008-0.005c-0.356 0.24-0.649 0.578-0.853 0.978l-4.916 9.716c-0.020 0.042-0.047 0.077-0.080 0.106l-0 0c-0.030 0.030-0.065 0.054-0.105 0.070l-0.002 0.001c-0.044 0.009-0.089 0.018-0.124 0.009-0.046-0.003-0.088-0.015-0.126-0.036l0.002 0.001-8.427-4.107c-0.282-0.146-0.616-0.232-0.97-0.232-0.572 0-1.091 0.224-1.475 0.589l0.001-0.001c-0.338 0.302-0.587 0.711-0.729 1.156-0.076 0.243-0.12 0.523-0.12 0.813 0 0.216 0.024 0.426 0.070 0.628l-0.004-0.019 4.249 19.84c0.075 0.354 0.211 0.667 0.397 0.943l-0.006-0.009c0.178 0.276 0.418 0.507 0.693 0.684 0.332 0.227 0.742 0.362 1.184 0.362 0.225 0 0.441-0.035 0.644-0.1l-0.015 0.004c3.557-1.125 7.648-1.773 11.89-1.773 4.232 0 8.312 0.645 12.15 1.842l-0.289-0.078c0.194 0.064 0.418 0.102 0.651 0.102 0.436 0 0.842-0.131 1.179-0.355l-0.008 0.005c0.552-0.376 0.948-0.946 1.090-1.61l0.003-0.017 4.231-19.849c0.107-0.462 0.089-0.951-0.044-1.404-0.134-0.462-0.381-0.855-0.71-1.163l-0.001-0.001zM36.64 9.591l-4.249 19.867c-0.027 0.089-0.080 0.178-0.151 0.231-0.089 0.044-0.178 0.062-0.267 0.044-3.715-1.175-7.987-1.852-12.418-1.852s-8.703 0.677-12.719 1.934l0.301-0.081c-0.027 0.008-0.057 0.013-0.089 0.013-0.067 0-0.129-0.022-0.179-0.058l0.001 0.001c-0.036-0.027-0.065-0.059-0.088-0.096l-0.001-0.002c-0.028-0.038-0.049-0.082-0.062-0.131l-0.001-0.003-4.249-19.858c-0.003-0.020-0.005-0.044-0.005-0.067 0-0.091 0.029-0.176 0.077-0.245l-0.001 0.001c0.030-0.044 0.069-0.080 0.114-0.106l0.002-0.001c0.044-0.027 0.089-0.036 0.151-0.044l0.133 0.044 8.427 4.124c0.533 0.267 1.138 0.293 1.689 0.089s1.013-0.622 1.298-1.191l4.916-9.716c0.026-0.058 0.065-0.106 0.115-0.142l0.001-0.001c0.047-0.033 0.106-0.054 0.169-0.054s0.122 0.020 0.17 0.054l-0.001-0.001c0.044 0.036 0.089 0.089 0.116 0.142l4.916 9.716c0.276 0.56 0.747 0.987 1.298 1.191s1.156 0.178 1.689-0.089l8.427-4.124c0.041-0.022 0.090-0.035 0.142-0.035 0.084 0 0.159 0.034 0.214 0.089v0c0.044 0.044 0.089 0.098 0.107 0.16 0.018 0.071 0.018 0.133 0 0.204zM25.884 23.529c-0.027 0.267-0.142 0.524-0.329 0.711-0.178 0.178-0.418 0.284-0.667 0.284h-0.098c-1.571-0.184-3.391-0.289-5.236-0.289s-3.665 0.105-5.454 0.309l0.219-0.020c-0.267 0.027-0.524-0.053-0.729-0.24-0.203-0.184-0.34-0.438-0.373-0.724l-0.001-0.005c-0.018-0.293 0.062-0.587 0.231-0.809 0.169-0.231 0.409-0.373 0.676-0.409 3.609-0.418 7.253-0.418 10.862 0 0.267 0.036 0.507 0.178 0.667 0.4 0.178 0.222 0.258 0.507 0.231 0.8z"></path>
    </symbol>
    <symbol id="icon-facebook_logo" viewBox="0 0 19 32">
      <path d="M17.644 1.247c-1.49-0.154-2.979-0.232-4.469-0.232-4.954 0-8.022 3.156-8.022 8.221v3.443h-4.16c-0.408 0-0.739 0.331-0.739 0.739v0 5.661c0 0.408 0.331 0.739 0.739 0.739h4.16v11.366c0.006 0.4 0.329 0.722 0.728 0.728h5.849c0.408 0 0.739-0.331 0.739-0.739v0-11.354h4.149c0.371-0.002 0.678-0.278 0.728-0.636l0-0.004 0.728-5.661c0.004-0.030 0.007-0.064 0.007-0.099 0-0.407-0.329-0.737-0.735-0.739h-4.878v-2.858c0-1.434 0.287-2.030 2.074-2.030h3.001c0.408 0 0.739-0.331 0.739-0.739v0-5.076c-0.008-0.367-0.282-0.667-0.636-0.717l-0.004-0zM16.806 6.301h-2.262c-3.178 0-3.531 1.997-3.531 3.498v3.619c0 0 0 0 0 0 0 0.404 0.325 0.733 0.728 0.739h4.768l-0.541 4.193h-4.226c-0.408 0-0.739 0.331-0.739 0.739v0 11.354h-4.381v-11.366c-0.006-0.404-0.335-0.728-0.739-0.728-0 0-0 0-0 0h-4.149v-4.193h4.149c0.408 0 0.739-0.331 0.739-0.739v0-4.182c0-4.226 2.45-6.753 6.554-6.753 1.479 0 2.825 0.088 3.641 0.154v3.663z"></path>
    </symbol>
    <symbol id="icon-instagram_logo" viewBox="0 0 32 32">
      <path d="M16 8.923c-3.908 0-7.077 3.168-7.077 7.077s3.168 7.077 7.077 7.077v0c3.908 0 7.077-3.168 7.077-7.077s-3.168-7.077-7.077-7.077v0zM16 21.231c-2.889 0-5.231-2.342-5.231-5.231s2.342-5.231 5.231-5.231v0c2.889 0 5.231 2.342 5.231 5.231s-2.342 5.231-5.231 5.231v0zM22.769 0.923h-13.538c-4.588 0-8.308 3.719-8.308 8.308v0 13.538c0 4.588 3.719 8.308 8.308 8.308v0h13.538c4.588 0 8.308-3.719 8.308-8.308v0-13.538c0-4.588-3.719-8.308-8.308-8.308v0zM29.231 22.769c0 3.569-2.893 6.462-6.462 6.462v0h-13.538c-3.569 0-6.462-2.893-6.462-6.462v0-13.538c0-3.569 2.893-6.462 6.462-6.462v0h13.538c3.569 0 6.462 2.893 6.462 6.462v0 13.538zM25.538 8c0 0.85-0.689 1.538-1.538 1.538s-1.538-0.689-1.538-1.538v0c0-0.85 0.689-1.538 1.538-1.538s1.538 0.689 1.538 1.538v0z"></path>
    </symbol>
    <symbol id="icon-telephone_logo" viewBox="0 0 28 32">
      <path d="M25.65 22.96l-0.17-0.22c-1.37-1.73-2.52-2.64-3.5-2.75-0.85-0.12-1.67 0.47-2.55 1.070l-0.93 0.59-0.33 0.13c-0.55 0.15-1.93 0.24-2.7-0.47-1.208-1.148-2.329-2.352-3.375-3.621l-0.055-0.069c-0.931-1.204-1.855-2.565-2.697-3.982l-0.103-0.188c-0.5-0.92-0.080-2.2 0.2-2.67 0.060-0.1 0.13-0.19 0.21-0.28l0.83-0.76 0.030-0.040 0.030-0.010c0.74-0.63 1.51-1.28 1.62-2.1 0.12-0.98-0.49-2.3-1.86-4.040l-0.17-0.21c-0.85-1.1-2.13-2.74-3.98-2.47-0.73 0.1-1.38 0.36-2.050 0.78l-0.020 0.010-0.010 0.010-0.94 0.7-0.020 0.020-0.020 0.010-0.33 0.28c-0.94 0.84-2.99 3.3-1.6 7.82 0.9 2.92 2.77 6.33 5.4 9.88l-0.030 0.020 1.45 1.8h0.010c2.85 3.37 5.75 5.97 8.4 7.55 1.304 0.842 2.887 1.358 4.589 1.4l0.011 0c0.016 0 0.035 0 0.055 0 1.275 0 2.463-0.373 3.461-1.015l-0.025 0.015 0.37-0.25c0.041-0.026 0.074-0.059 0.099-0.099l0.001-0.001 0.83-0.63 0.030-0.020 0.010-0.010c0.6-0.54 1-1.1 1.28-1.76 0.73-1.7-0.58-3.34-1.45-4.42zM26.12 26.96c-0.22 0.52-0.54 0.96-1 1.38l-1.23 0.93c-1.12 0.72-3.5 1.61-6.95-0.44-2.65-1.58-5.58-4.24-8.46-7.71l-0.78-0.98c-2.7-3.6-4.6-7.040-5.5-9.96-1.17-3.8 0.3-5.83 1.29-6.7 0.1-0.1 0.2-0.18 0.3-0.26l0.9-0.67c0.461-0.307 1.008-0.525 1.597-0.617l0.023-0.003c1.24-0.2 2.25 1.12 2.99 2.060l0.17 0.22c1.53 1.94 1.68 2.86 1.63 3.24-0.050 0.42-0.69 0.95-1.25 1.42l-0.080 0.070-0.020 0.010-0.86 0.81-0.020 0.020c-0.122 0.133-0.235 0.281-0.333 0.437l-0.007 0.013c-0.48 0.8-0.93 2.45-0.22 3.74 0.976 1.657 1.934 3.064 2.971 4.406l-0.072-0.096c1.136 1.381 2.29 2.624 3.514 3.795l0.016 0.015c0.7 0.65 1.69 0.86 2.54 0.86 0.45 0 0.87-0.060 1.19-0.15 0.16-0.050 0.33-0.12 0.51-0.2l0.030-0.020h0.020l0.99-0.63 0.080-0.070c0.62-0.41 1.31-0.9 1.75-0.84 0.38 0.050 1.26 0.42 2.8 2.36l0.17 0.23c0.75 0.93 1.78 2.21 1.3 3.33z"></path>
    </symbol>
    <symbol id="icon-arrow" viewBox="0 0 36 32">
      <path d="M1.062 17.414c-0.781-0.781-0.781-2.047 0-2.828l12.728-12.728c0.781-0.781 2.047-0.781 2.828 0s0.781 2.047 0 2.828l-11.314 11.314 11.314 11.314c0.781 0.781 0.781 2.047 0 2.828s-2.047 0.781-2.828 0l-12.728-12.728zM36 18h-33.524v-4h33.524v4z"></path>
    </symbol>
  </defs>
</svg>
  </defs>
</svg>
